<svg width="16" height="16" xmlns="http://www.w3.org/2000/svg">

 <g>
  <title>Layer 1</title>
  <path id="svg_1" d="m12.42473,10.15385l0,0.53846c0,0.37369 -0.06437,0.73015 -0.156,1.07692l1.73127,0l0,1.61539l-2.56473,0c-0.80072,0.97569 -2.00945,1.61538 -3.37418,1.61538c-1.36473,0 -2.57345,-0.63969 -3.37418,-1.61538l-2.68691,0l0,-1.61539l1.85345,0c-0.09163,-0.34677 -0.156,-0.70323 -0.156,-1.07692l0,-0.53846l-1.69745,0l0,-1.61539l1.69745,0l0,-1.07692c0,-0.18416 0.03273,-0.35969 0.05564,-0.53846l-1.75309,0l0,-1.61539l2.30727,0c0.41673,-0.70323 1.02546,-1.27507 1.75964,-1.65307l-1.53273,-1.512l1.15746,-1.14262l2.19927,2.17108c0.05782,-0.00216 0.05127,-0.01077 0.10909,-0.01077c0.02073,0 0.09927,0.00861 0.12,0.00969l2.18836,-2.17l1.15746,1.14262l-1.48909,1.47c0.76909,0.37584 1.40618,0.966 1.83818,1.69507l2.18509,0l0,1.61539l-1.63091,0c0.02291,0.17877 0.05564,0.3543 0.05564,0.53846l0,1.07692l1.57527,0l0,1.61539l-1.57527,0zm-6.22473,-3.15385l0,1.5l3.6,0l0,-1.5l-3.6,0zm0,3l0,1.5l3.6,0l0,-1.5l-3.6,0z" fill-rule="evenodd" fill-opacity="0.7" fill="#62B543"/>

  <g id="svg_7">
   <g id="svg_5">
    <path id="svg_6" pointer-events="all" fill="#000000" d="m10.61738,12.11917c-0.49,0.39 -1.15,0.63 -1.76,0.63c-1.64,0 -2.83,-1.36 -2.83,-2.82c0,-1.67 1.34,-2.86 2.82,-2.86c1.46,0 2.81,1.17 2.81,2.86c0,0.67 -0.22,1.26 -0.62,1.77l0.08,0.09l0.62,0.11l2.17,2.19c0.12,0.13 0.06,0.46 -0.2,0.71c-0.26,0.24 -0.55,0.35 -0.71,0.21l-2.18,-2.19l-0.1,-0.61l-0.1,-0.09zm-1.8,0c1.28,0 2.23,-1.03 2.23,-2.2c0,-1.18 -0.95,-2.22 -2.2,-2.22c-1.21,0 -2.21,1 -2.21,2.22c0,1.16 0.96,2.2 2.18,2.2z"/>
   </g>
  </g>
 </g>
</svg>